<?xml version="1.0" encoding="UTF-8" standalone="no"?>
<!DOCTYPE svg PUBLIC "-//W3C//DTD SVG 1.1//EN" "http://www.w3.org/Graphics/SVG/1.1/DTD/svg11.dtd">
<svg width="100%" height="100%" viewBox="0 0 128 128" version="1.1" xmlns="http://www.w3.org/2000/svg" xmlns:xlink="http://www.w3.org/1999/xlink" xml:space="preserve" xmlns:serif="http://www.serif.com/" style="fill-rule:evenodd;clip-rule:evenodd;stroke-linejoin:round;stroke-miterlimit:2;">
    <rect x="20.9" y="39.139" width="75.473" height="48.866" style="fill:white;"/>
    <g transform="matrix(1.2137,0,0,1.15871,-26.4673,-9.53855)">
        <ellipse cx="110.428" cy="45.892" rx="10.5" ry="10.145" style="fill:white;"/>
    </g>
    <g transform="matrix(0.430736,0,0,0.430736,64,64)">
        <g transform="matrix(1,0,0,1,-212.6,-212.6)">
            <g>
                <path d="M202.8,213.2C197.8,213.2 194.7,215.9 194.7,223.1L194.7,241.1C194.7,248.2 197.8,250.8 202.8,250.8C207.8,250.8 210.9,248.2 210.9,241.1L210.9,223.1C210.9,215.9 207.8,213.2 202.8,213.2Z" style="fill:rgb(247,169,65);fill-rule:nonzero;"/>
                <path d="M259.1,177.1C254.1,177.1 251,179.8 251,187L251,241C251,248.1 254.1,250.9 259.1,250.9C264.1,250.9 267.2,248.2 267.2,241L267.2,187C267.2,179.9 264.1,177.1 259.1,177.1Z" style="fill:rgb(247,169,65);fill-rule:nonzero;"/>
                <path d="M335.4,134.5C324.9,125.7 309.1,125.7 297.7,132.6C275.5,107.5 243.2,91.6 207.1,91.6C140.3,91.6 86.2,145.7 86.2,212.5C86.2,279.3 140.3,333.4 207.1,333.4C273.9,333.4 328,279.3 328,212.5C328,205 327.3,197.6 326,190.5C348.7,182.8 356,150.5 335.4,134.5ZM169.3,190.6C169.3,201.3 165.9,207.9 158.3,211L158.3,211.3C166.2,214.7 169.3,222 169.3,232.2L169.3,240.1C169.3,256.1 161.3,265.3 145.9,265.3C130.5,265.3 122.5,256.2 122.5,240.1L122.5,231.8L137.4,231.8L137.4,241.1C137.4,248.2 140.5,251 145.5,251C150.5,251 153.6,248.6 153.6,239.7L153.6,231.8C153.6,222.5 150.5,219.1 143.3,219.1L138,219.1L138,204.8L144.1,204.8C150,204.8 153.5,202.2 153.5,194.2L153.5,188.6C153.5,179.6 150.4,177.2 145.4,177.2C140.4,177.2 137.3,179.9 137.3,187.1L137.3,193.5L122.4,193.5L122.4,188C122.4,172 130.4,162.8 145.8,162.8C161.2,162.8 169.2,171.9 169.2,188L169.2,190.6L169.3,190.6ZM226.6,240C226.6,256 218.2,265.2 202.7,265.2C187.3,265.2 178.8,256.1 178.8,240L178.8,188.8C178.8,171.9 186.5,162.8 202.8,162.8C218.2,162.8 226.2,171.9 226.2,188L226.2,190.6L211.3,190.6L211.3,187C211.3,179.9 208.2,177.1 203.2,177.1C197.6,177.1 194.5,179.8 194.5,189.4L194.5,207.5L194.8,207.5C197.5,201.8 202.1,198.8 209.1,198.8C220.7,198.8 226.5,206.9 226.5,221.7L226.5,240L226.6,240ZM282.9,240C282.9,256 274.5,265.2 259,265.2C243.6,265.2 235.1,256.1 235.1,240L235.1,188C235.1,172 243.5,162.8 259,162.8C274.4,162.8 282.9,171.9 282.9,188L282.9,240ZM324.5,190.8C323.4,191.2 322.3,191.5 321.2,191.8C287.9,197.1 279.6,150.1 311.7,142.9C342.9,137.7 353.3,180.9 324.5,190.8Z" style="fill:rgb(247,169,65);fill-rule:nonzero;"/>
            </g>
        </g>
    </g>
</svg>
