<?xml version="1.0" encoding="UTF-8" standalone="no"?>
<!DOCTYPE svg PUBLIC "-//W3C//DTD SVG 1.1//EN" "http://www.w3.org/Graphics/SVG/1.1/DTD/svg11.dtd">
<svg width="100%" height="100%" viewBox="0 0 600 275" version="1.1" xmlns="http://www.w3.org/2000/svg" xmlns:xlink="http://www.w3.org/1999/xlink" xml:space="preserve" xmlns:serif="http://www.serif.com/" style="fill-rule:evenodd;clip-rule:evenodd;stroke-linejoin:round;stroke-miterlimit:2;">
    <g transform="matrix(2.06616,0,0,2.06616,310.029,148.844)">
        <g transform="matrix(1,0,0,1,-212.6,-212.6)">
            <g>
                <path d="M79.8,181.7C87.7,181.7 91.8,186.4 91.8,194.8L91.8,196.4L84.1,196.4L84.1,194.2C84.1,190.5 82.6,189.1 80,189.1C77.4,189.1 75.9,190.5 75.9,194.2C75.9,198 77.5,200.8 82.9,205.5C89.7,211.5 91.9,215.8 91.9,221.7C91.9,230 87.7,234.7 79.7,234.7C71.7,234.7 67.5,230 67.5,221.7L67.5,218.5L75.2,218.5L75.2,222.2C75.2,225.9 76.8,227.2 79.4,227.2C82,227.2 83.6,225.9 83.6,222.2C83.6,218.4 82,215.6 76.6,210.9C69.8,204.9 67.6,200.6 67.6,194.7C67.8,186.4 71.9,181.7 79.8,181.7Z" style="fill:rgb(247,169,65);fill-rule:nonzero;"/>
                <path d="M120.2,214.7L120.2,221.7C120.2,230 116,234.7 108,234.7C100,234.7 95.8,230 95.8,221.7L95.8,194.7C95.8,186.4 100,181.6 108,181.6C116,181.6 120.2,186.3 120.2,194.7L120.2,199.7L112.5,199.7L112.5,194.1C112.5,190.4 110.9,189 108.3,189C105.7,189 104.1,190.4 104.1,194.1L104.1,222.1C104.1,225.8 105.7,227.1 108.3,227.1C110.9,227.1 112.5,225.8 112.5,222.1L112.5,214.7L120.2,214.7Z" style="fill:rgb(247,169,65);fill-rule:nonzero;"/>
                <path d="M124.5,194.7C124.5,186.4 128.9,181.6 136.9,181.6C144.9,181.6 149.3,186.3 149.3,194.7L149.3,221.7C149.3,230 144.9,234.7 136.9,234.7C128.9,234.7 124.5,230 124.5,221.7L124.5,194.7ZM132.7,222.2C132.7,225.9 134.3,227.3 136.9,227.3C139.5,227.3 141.1,225.9 141.1,222.2L141.1,194.2C141.1,190.5 139.5,189.1 136.9,189.1C134.3,189.1 132.7,190.5 132.7,194.2L132.7,222.2Z" style="fill:rgb(247,169,65);fill-rule:nonzero;"/>
                <path d="M178.7,195.1L178.7,201.8C178.7,210.1 174.7,214.6 166.5,214.6L162.6,214.6L162.6,234.1L154.4,234.1L154.4,182.2L166.4,182.2C174.7,182.3 178.7,186.8 178.7,195.1ZM162.7,189.7L162.7,207.3L166.6,207.3C169.2,207.3 170.6,206.1 170.6,202.4L170.6,194.6C170.6,190.9 169.2,189.7 166.6,189.7L162.7,189.7Z" style="fill:rgb(247,169,65);fill-rule:nonzero;"/>
                <path d="M190.7,204.2L201.9,204.2L201.9,211.6L190.7,211.6L190.7,226.8L204.8,226.8L204.8,234.2L182.6,234.2L182.6,182.3L204.8,182.3L204.8,189.7L190.7,189.7L190.7,204.2Z" style="fill:rgb(233,150,41);fill-rule:nonzero;"/>
            </g>
            <g>
                <path d="M274.5,207.8C271.9,207.8 270.3,209.2 270.3,212.9L270.3,222.2C270.3,225.9 271.9,227.2 274.5,227.2C277.1,227.2 278.7,225.9 278.7,222.2L278.7,212.9C278.7,209.2 277.1,207.8 274.5,207.8Z" style="fill:rgb(247,169,65);fill-rule:nonzero;"/>
                <path d="M303.7,189.2C301.1,189.2 299.5,190.6 299.5,194.3L299.5,222.3C299.5,226 301.1,227.4 303.7,227.4C306.3,227.4 307.9,226 307.9,222.3L307.9,194.3C307.9,190.6 306.3,189.2 303.7,189.2Z" style="fill:rgb(247,169,65);fill-rule:nonzero;"/>
                <path d="M343.2,167.1C337.8,162.5 329.6,162.6 323.6,166.1C312.1,153.1 295.3,144.9 276.6,144.9C242,144.9 213.9,173 213.9,207.6C213.9,242.2 242,270.3 276.6,270.3C311.2,270.3 339.3,242.2 339.3,207.6C339.3,203.7 338.9,199.9 338.2,196.2C350.1,192.1 353.9,175.3 343.2,167.1ZM257.2,196.1C257.2,201.7 255.4,205.1 251.5,206.7L251.5,206.8C255.6,208.6 257.2,212.4 257.2,217.6L257.2,221.7C257.2,230 253.1,234.7 245.1,234.7C237.1,234.7 233,230 233,221.7L233,217.4L240.7,217.4L240.7,222.2C240.7,225.9 242.3,227.3 244.9,227.3C247.5,227.3 249.1,226 249.1,221.5L249.1,217.4C249.1,212.6 247.5,210.8 243.8,210.8L241,210.8L241,203.4L244.2,203.4C247.2,203.4 249.1,202.1 249.1,197.9L249.1,195C249.1,190.3 247.5,189.1 244.9,189.1C242.3,189.1 240.7,190.5 240.7,194.2L240.7,197.5L233,197.5L233,194.7C233,186.4 237.1,181.7 245.1,181.7C253.1,181.7 257.2,186.4 257.2,194.7L257.2,196.1ZM286.9,221.7C286.9,230 282.5,234.7 274.5,234.7C266.5,234.7 262.1,230 262.1,221.7L262.1,195.2C262.1,186.5 266.1,181.7 274.5,181.7C282.5,181.7 286.6,186.4 286.6,194.7L286.6,196L279,196L279,194.1C279,190.4 277.4,189 274.8,189C271.9,189 270.3,190.4 270.3,195.4L270.3,204.8L270.4,204.8C271.8,201.8 274.2,200.3 277.8,200.3C283.8,200.3 286.8,204.5 286.8,212.1L286.8,221.7L286.9,221.7ZM316,221.7C316,230 311.6,234.7 303.6,234.7C295.6,234.7 291.2,230 291.2,221.7L291.2,194.7C291.2,186.4 295.6,181.7 303.6,181.7C311.6,181.7 316,186.4 316,194.7L316,221.7ZM337.6,196.2C337,196.4 336.5,196.6 335.9,196.7C318.6,199.4 314.3,175.1 331,171.4C347.1,168.7 352.5,191.1 337.6,196.2Z" style="fill:rgb(247,169,65);fill-rule:nonzero;"/>
            </g>
        </g>
    </g>
</svg>
