<?xml version="1.0" encoding="UTF-8" standalone="no"?>
<!DOCTYPE svg PUBLIC "-//W3C//DTD SVG 1.1//EN" "http://www.w3.org/Graphics/SVG/1.1/DTD/svg11.dtd">
<svg width="100%" height="100%" viewBox="0 0 1191 341" version="1.1" xmlns="http://www.w3.org/2000/svg" xmlns:xlink="http://www.w3.org/1999/xlink" xml:space="preserve" xmlns:serif="http://www.serif.com/" style="fill-rule:evenodd;clip-rule:evenodd;stroke-linejoin:round;stroke-miterlimit:1.5;">
    <g transform="matrix(4.81064,0,0,4.81064,-1881.46,-982.189)">
        <g id="Layer-5" serif:id="Layer 5">
            <g transform="matrix(12,0,0,12,481.77,265.895)">
                <path d="M0.275,-0.754L0.275,-0.166L0.51,-0.166L0.51,-0L0.079,-0L0.079,-0.754L0.275,-0.754Z" style="fill-rule:nonzero;"/>
            </g>
            <g transform="matrix(12,0,0,12,488.154,265.895)">
                <rect x="0.079" y="-0.754" width="0.196" height="0.754" style="fill-rule:nonzero;"/>
            </g>
            <g transform="matrix(12,0,0,12,492.402,265.895)">
                <path d="M0.446,-0.422L0.835,-0.422C0.835,-0.382 0.833,-0.346 0.83,-0.313C0.827,-0.28 0.82,-0.25 0.81,-0.222C0.796,-0.183 0.777,-0.148 0.753,-0.118C0.729,-0.087 0.701,-0.062 0.669,-0.042C0.636,-0.021 0.601,-0.006 0.562,0.005C0.523,0.016 0.483,0.021 0.44,0.021C0.381,0.021 0.328,0.011 0.28,-0.008C0.231,-0.027 0.19,-0.054 0.155,-0.09C0.12,-0.125 0.093,-0.167 0.074,-0.216C0.055,-0.265 0.045,-0.319 0.045,-0.378C0.045,-0.437 0.054,-0.491 0.074,-0.54C0.093,-0.588 0.12,-0.63 0.155,-0.665C0.19,-0.7 0.232,-0.727 0.281,-0.746C0.33,-0.765 0.385,-0.775 0.446,-0.775C0.525,-0.775 0.594,-0.758 0.653,-0.724C0.712,-0.69 0.759,-0.637 0.794,-0.566L0.608,-0.489C0.591,-0.53 0.568,-0.56 0.541,-0.578C0.513,-0.596 0.481,-0.605 0.446,-0.605C0.417,-0.605 0.39,-0.6 0.366,-0.589C0.342,-0.578 0.322,-0.562 0.305,-0.542C0.288,-0.521 0.274,-0.497 0.265,-0.468C0.255,-0.439 0.25,-0.407 0.25,-0.372C0.25,-0.34 0.254,-0.31 0.263,-0.283C0.271,-0.256 0.283,-0.232 0.3,-0.212C0.317,-0.192 0.337,-0.177 0.362,-0.166C0.387,-0.155 0.415,-0.149 0.448,-0.149C0.467,-0.149 0.486,-0.151 0.504,-0.156C0.522,-0.16 0.538,-0.167 0.553,-0.177C0.567,-0.186 0.579,-0.199 0.588,-0.214C0.597,-0.229 0.604,-0.248 0.607,-0.27L0.446,-0.27L0.446,-0.422Z" style="fill-rule:nonzero;"/>
            </g>
            <g transform="matrix(12,0,0,12,502.962,265.895)">
                <path d="M0.275,-0.463L0.558,-0.463L0.558,-0.754L0.754,-0.754L0.754,-0L0.558,-0L0.558,-0.311L0.275,-0.311L0.275,-0L0.079,-0L0.079,-0.754L0.275,-0.754L0.275,-0.463Z" style="fill-rule:nonzero;"/>
            </g>
            <g transform="matrix(12,0,0,12,512.958,265.895)">
                <path d="M0.365,-0.588L0.365,-0L0.169,-0L0.169,-0.588L0.008,-0.588L0.008,-0.754L0.526,-0.754L0.526,-0.588L0.365,-0.588Z" style="fill-rule:nonzero;"/>
            </g>
        </g>
    </g>
    <g id="Layer-4" serif:id="Layer 4">
        <path d="M377.091,140.09C474.495,59.502 561.151,43.719 636.812,34.868C680.397,29.769 827.289,21.435 1082.87,56.111" style="fill:none;stroke:rgb(255,0,0);stroke-width:9px;"/>
    </g>
    <g id="Layer-3" serif:id="Layer 3">
        <path d="M1093,63.214C1093,44.931 1107.82,30.109 1126.1,30.109C1144.38,30.109 1159.2,44.931 1159.2,63.214C1159.2,81.497 1144.38,96.318 1126.1,96.318C1107.82,96.318 1093,81.497 1093,63.214Z" style="fill:rgb(29,25,215);"/>
    </g>
    <g id="Layer-1" serif:id="Layer 1">
        <g>
            <path d="M714.186,140.119C715.354,140.265 716.339,140.338 717.142,140.338L719.223,140.338C724.625,140.338 729.005,138.732 732.363,135.52C735.721,132.308 737.4,128.147 737.4,123.037C737.4,118.073 735.83,114.058 732.691,110.992C729.552,107.926 725.501,106.393 720.537,106.393C715.281,106.393 711.047,108.145 707.835,111.649C704.623,115.153 703.017,119.679 703.017,125.227L663.378,125.227C664.4,116.613 666.553,108.948 669.838,102.232C673.123,95.516 677.321,89.859 682.431,85.26C687.541,80.661 693.527,77.157 700.389,74.748C707.251,72.339 714.843,71.134 723.165,71.134C731.341,71.134 738.75,72.266 745.393,74.529C752.036,76.792 757.73,80.004 762.475,84.165C767.22,88.326 770.87,93.363 773.425,99.276C775.98,105.189 777.258,111.795 777.258,119.095C777.258,126.979 775.761,133.44 772.768,138.477C769.775,143.514 765.505,147.857 759.957,151.507C768.425,154.135 775.031,158.844 779.776,165.633C784.521,172.422 786.894,180.78 786.894,190.708C786.894,198.884 785.288,206.33 782.076,213.046C778.864,219.762 774.374,225.529 768.607,230.347C762.84,235.165 755.978,238.888 748.021,241.516C740.064,244.144 731.341,245.458 721.851,245.458C709.149,245.458 697.688,242.976 687.468,238.012C677.248,233.048 669.072,225.164 662.94,214.36C660.166,209.542 658.304,204.724 657.355,199.906C656.406,195.088 655.932,190.197 655.932,185.233L698.418,185.233C698.71,192.971 700.973,198.848 705.207,202.863C709.441,206.878 715.135,208.885 722.289,208.885C729.881,208.885 735.429,206.841 738.933,202.753C742.437,198.665 744.189,193.628 744.189,187.642C744.189,180.488 742.072,175.086 737.838,171.436C733.604,167.786 728.567,165.961 722.727,165.961C721.267,165.961 719.88,166.071 718.566,166.29C717.252,166.509 715.792,166.764 714.186,167.056L714.186,140.119Z" style="fill:rgb(205,136,75);"/>
            <path d="M915.666,75.733L868.8,129.607L869.676,129.607C873.764,127.125 877.122,125.629 879.75,125.118C882.378,124.607 884.714,124.351 886.758,124.351C894.788,124.351 902.161,125.884 908.877,128.95C915.593,132.016 921.433,136.214 926.397,141.543C931.361,146.872 935.23,153.113 938.004,160.267C940.778,167.421 942.165,175.086 942.165,183.262C942.165,192.022 940.559,200.162 937.347,207.681C934.135,215.2 929.499,221.77 923.44,227.391C917.381,233.012 910.045,237.428 901.431,240.64C892.817,243.852 883.108,245.458 872.304,245.458C861.354,245.458 851.572,243.852 842.958,240.64C834.344,237.428 827.007,233.048 820.948,227.5C814.889,221.952 810.254,215.492 807.042,208.119C803.83,200.746 802.224,192.898 802.224,184.576C802.224,175.232 804.304,165.122 808.465,154.245C812.626,143.368 819.014,132.673 827.628,122.161L865.953,75.733L915.666,75.733ZM844.71,184.138C844.71,187.934 845.44,191.475 846.9,194.76C848.36,198.045 850.331,200.928 852.813,203.41C855.295,205.892 858.178,207.863 861.463,209.323C864.748,210.783 868.289,211.513 872.085,211.513C875.881,211.513 879.421,210.783 882.706,209.323C885.991,207.863 888.875,205.892 891.357,203.41C893.839,200.928 895.81,198.045 897.27,194.76C898.73,191.475 899.46,187.934 899.46,184.138C899.46,180.342 898.73,176.802 897.27,173.517C895.81,170.232 893.839,167.348 891.357,164.866C888.875,162.384 885.991,160.413 882.706,158.953C879.421,157.493 875.881,156.763 872.085,156.763C868.289,156.763 864.748,157.493 861.463,158.953C858.178,160.413 855.295,162.384 852.813,164.866C850.331,167.348 848.36,170.232 846.9,173.517C845.44,176.802 844.71,180.342 844.71,184.138Z" style="fill:rgb(205,136,75);"/>
            <path d="M993.411,158.077C993.411,165.377 994.068,172.02 995.382,178.006C996.696,183.992 998.557,189.175 1000.97,193.555C1003.38,197.935 1006.26,201.33 1009.62,203.739C1012.97,206.148 1016.77,207.352 1021,207.352C1025.09,207.352 1028.85,206.148 1032.28,203.739C1035.71,201.33 1038.6,197.935 1040.93,193.555C1043.27,189.175 1045.09,183.992 1046.41,178.006C1047.72,172.02 1048.38,165.377 1048.38,158.077C1048.38,150.923 1047.72,144.317 1046.41,138.258C1045.09,132.199 1043.27,127.016 1040.93,122.709C1038.6,118.402 1035.71,115.044 1032.28,112.635C1028.85,110.226 1025.09,109.021 1021,109.021C1016.77,109.021 1012.97,110.226 1009.62,112.635C1006.26,115.044 1003.38,118.402 1000.97,122.709C998.557,127.016 996.696,132.199 995.382,138.258C994.068,144.317 993.411,150.923 993.411,158.077ZM950.925,158.077C950.925,144.937 952.64,133.002 956.071,122.271C959.502,111.54 964.32,102.378 970.525,94.786C976.73,87.194 984.103,81.318 992.644,77.157C1001.19,72.996 1010.64,70.915 1021,70.915C1031.22,70.915 1040.64,72.996 1049.26,77.157C1057.87,81.318 1065.24,87.194 1071.37,94.786C1077.51,102.378 1082.29,111.54 1085.72,122.271C1089.15,133.002 1090.87,144.937 1090.87,158.077C1090.87,171.217 1089.15,183.153 1085.72,193.884C1082.29,204.615 1077.51,213.813 1071.37,221.478C1065.24,229.143 1057.87,235.056 1049.26,239.217C1040.64,243.378 1031.22,245.458 1021,245.458C1010.64,245.458 1001.19,243.378 992.644,239.217C984.103,235.056 976.73,229.143 970.525,221.478C964.32,213.813 959.502,204.615 956.071,193.884C952.64,183.153 950.925,171.217 950.925,158.077Z" style="fill:rgb(205,136,75);"/>
        </g>
        <g>
            <path d="M144.84,101.255L124.63,113.232C120.852,106.673 117.252,102.396 113.83,100.4C110.265,98.118 105.667,96.978 100.035,96.978C93.12,96.978 87.382,98.938 82.819,102.859C78.257,106.709 75.975,111.556 75.975,117.402C75.975,125.458 81.964,131.945 93.94,136.864L110.408,143.601C123.81,149.019 133.612,155.631 139.815,163.437C146.017,171.243 149.118,180.814 149.118,192.149C149.118,207.333 144.056,219.88 133.933,229.789C123.739,239.77 111.085,244.76 95.972,244.76C81.643,244.76 69.809,240.518 60.47,232.035C51.274,223.552 45.535,211.611 43.254,196.212L68.49,190.652C69.631,200.347 71.627,207.048 74.478,210.755C79.611,217.884 87.096,221.448 96.934,221.448C104.705,221.448 111.156,218.846 116.289,213.642C121.422,208.438 123.988,201.844 123.988,193.86C123.988,190.652 123.543,187.711 122.652,185.038C121.761,182.364 120.37,179.905 118.481,177.659C116.592,175.414 114.151,173.311 111.156,171.35C108.162,169.39 104.598,167.518 100.463,165.736L84.53,159.106C61.931,149.553 50.632,135.581 50.632,117.188C50.632,104.784 55.373,94.411 64.854,86.071C74.336,77.658 86.134,73.452 100.249,73.452C119.283,73.452 134.147,82.72 144.84,101.255Z"/>
            <path d="M255.624,142.104L255.624,174.077C250.134,167.376 245.215,162.778 240.867,160.282C236.589,157.716 231.564,156.433 225.789,156.433C216.735,156.433 209.214,159.605 203.226,165.95C197.238,172.295 194.244,180.243 194.244,189.796C194.244,199.563 197.131,207.583 202.905,213.856C208.751,220.13 216.201,223.266 225.255,223.266C231.029,223.266 236.126,222.019 240.546,219.524C244.823,217.1 249.849,212.395 255.624,205.408L255.624,237.168C245.857,242.229 236.09,244.76 226.324,244.76C210.213,244.76 196.739,239.556 185.903,229.148C175.067,218.668 169.649,205.658 169.649,190.117C169.649,174.576 175.138,161.459 186.117,150.765C197.095,140.072 210.569,134.725 226.538,134.725C236.803,134.725 246.499,137.185 255.624,142.104Z"/>
        </g>
        <g>
            <path d="M273.97,188.941C273.97,173.899 279.353,161.102 290.117,150.552C300.882,140.001 313.999,134.725 329.469,134.725C345.01,134.725 358.198,140.036 369.034,150.658C379.728,161.281 385.074,174.326 385.074,189.796C385.074,205.408 379.692,218.49 368.927,229.041C358.091,239.52 344.796,244.76 329.041,244.76C313.429,244.76 300.347,239.413 289.796,228.72C279.246,218.169 273.97,204.909 273.97,188.941ZM298.565,189.368C298.565,199.777 301.345,208.01 306.906,214.07C312.609,220.201 320.13,223.266 329.469,223.266C338.879,223.266 346.4,220.237 352.032,214.177C357.664,208.117 360.48,200.026 360.48,189.903C360.48,179.78 357.664,171.689 352.032,165.629C346.329,159.498 338.808,156.433 329.469,156.433C320.273,156.433 312.823,159.498 307.12,165.629C301.417,171.76 298.565,179.673 298.565,189.368Z" style="fill:rgb(246,0,0);"/>
        </g>
        <g>
            <path d="M434.949,298.441L410.889,298.441L410.889,137.613L434.949,137.613L434.949,148.948C444.431,139.466 455.195,134.725 467.243,134.725C481.572,134.725 493.371,140.001 502.638,150.552C512.048,161.031 516.754,174.255 516.754,190.224C516.754,205.836 512.084,218.846 502.745,229.255C493.478,239.592 481.786,244.76 467.671,244.76C455.481,244.76 444.573,239.877 434.949,230.11L434.949,298.441ZM492.159,190.331C492.159,180.35 489.45,172.223 484.032,165.95C478.543,159.605 471.628,156.433 463.287,156.433C454.447,156.433 447.282,159.498 441.793,165.629C436.304,171.76 433.559,179.816 433.559,189.796C433.559,199.563 436.304,207.618 441.793,213.963C447.211,220.165 454.34,223.266 463.18,223.266C471.521,223.266 478.4,220.13 483.818,213.856C489.379,207.583 492.159,199.741 492.159,190.331Z"/>
            <path d="M637.054,195.357L562.414,195.357C563.056,203.911 565.836,210.719 570.755,215.781C575.674,220.771 581.983,223.266 589.682,223.266C595.671,223.266 600.625,221.841 604.546,218.989C608.396,216.137 612.78,210.862 617.699,203.163L638.016,214.498C634.88,219.844 631.565,224.425 628.071,228.239C624.578,232.053 620.836,235.189 616.843,237.649C612.851,240.108 608.538,241.908 603.904,243.049C599.271,244.19 594.245,244.76 588.827,244.76C573.286,244.76 560.81,239.77 551.4,229.789C541.99,219.738 537.285,206.406 537.285,189.796C537.285,173.328 541.847,159.997 550.972,149.803C560.169,139.751 572.359,134.725 587.544,134.725C602.871,134.725 614.99,139.609 623.901,149.375C632.741,159.071 637.161,172.509 637.161,189.689L637.054,195.357ZM612.352,175.681C609.002,162.849 600.91,156.433 588.078,156.433C585.155,156.433 582.411,156.878 579.844,157.77C577.278,158.661 574.943,159.944 572.84,161.619C570.737,163.294 568.937,165.308 567.44,167.661C565.943,170.013 564.802,172.687 564.018,175.681L612.352,175.681Z"/>
        </g>
    </g>
</svg>
