<?xml version="1.0" encoding="UTF-8" standalone="no"?>
<!DOCTYPE svg PUBLIC "-//W3C//DTD SVG 1.1//EN" "http://www.w3.org/Graphics/SVG/1.1/DTD/svg11.dtd">
<svg width="100%" height="100%" viewBox="0 0 600 275" version="1.1" xmlns="http://www.w3.org/2000/svg" xmlns:xlink="http://www.w3.org/1999/xlink" xml:space="preserve" xmlns:serif="http://www.serif.com/" style="fill-rule:evenodd;clip-rule:evenodd;stroke-linejoin:round;stroke-miterlimit:2;">
    <g transform="matrix(2.06616,0,0,2.06616,310.029,148.844)">
        <g transform="matrix(1,0,0,1,-212.6,-212.6)">
            <g>
                <path d="M79.8,181.7C87.7,181.7 91.8,186.4 91.8,194.8L91.8,196.4L84.1,196.4L84.1,194.2C84.1,190.5 82.6,189.1 80,189.1C77.4,189.1 75.9,190.5 75.9,194.2C75.9,198 77.5,200.8 82.9,205.5C89.7,211.5 91.9,215.8 91.9,221.7C91.9,230 87.7,234.7 79.7,234.7C71.7,234.7 67.5,230 67.5,221.7L67.5,218.5L75.2,218.5L75.2,222.2C75.2,225.9 76.8,227.2 79.4,227.2C82,227.2 83.6,225.9 83.6,222.2C83.6,218.4 82,215.6 76.6,210.9C69.8,204.9 67.6,200.6 67.6,194.7C67.8,186.4 71.9,181.7 79.8,181.7Z" style="fill:rgb(233,150,41);fill-rule:nonzero;"/>
                <path d="M120.2,214.7L120.2,221.7C120.2,230 116,234.7 108,234.7C100,234.7 95.8,230 95.8,221.7L95.8,194.7C95.8,186.4 100,181.6 108,181.6C116,181.6 120.2,186.3 120.2,194.7L120.2,199.7L112.5,199.7L112.5,194.1C112.5,190.4 110.9,189 108.3,189C105.7,189 104.1,190.4 104.1,194.1L104.1,222.1C104.1,225.8 105.7,227.1 108.3,227.1C110.9,227.1 112.5,225.8 112.5,222.1L112.5,214.7L120.2,214.7Z" style="fill:rgb(233,150,41);fill-rule:nonzero;"/>
                <path d="M124.5,194.7C124.5,186.4 128.9,181.6 136.9,181.6C144.9,181.6 149.3,186.3 149.3,194.7L149.3,221.7C149.3,230 144.9,234.7 136.9,234.7C128.9,234.7 124.5,230 124.5,221.7L124.5,194.7ZM132.7,222.2C132.7,225.9 134.3,227.3 136.9,227.3C139.5,227.3 141.1,225.9 141.1,222.2L141.1,194.2C141.1,190.5 139.5,189.1 136.9,189.1C134.3,189.1 132.7,190.5 132.7,194.2L132.7,222.2Z" style="fill:rgb(233,150,41);fill-rule:nonzero;"/>
                <path d="M178.7,195.1L178.7,201.8C178.7,210.1 174.7,214.6 166.5,214.6L162.6,214.6L162.6,234.1L154.4,234.1L154.4,182.2L166.4,182.2C174.7,182.3 178.7,186.8 178.7,195.1ZM162.7,189.7L162.7,207.3L166.6,207.3C169.2,207.3 170.6,206.1 170.6,202.4L170.6,194.6C170.6,190.9 169.2,189.7 166.6,189.7L162.7,189.7Z" style="fill:rgb(233,150,41);fill-rule:nonzero;"/>
                <path d="M190.7,204.2L201.9,204.2L201.9,211.6L190.7,211.6L190.7,226.8L204.8,226.8L204.8,234.2L182.6,234.2L182.6,182.3L204.8,182.3L204.8,189.7L190.7,189.7L190.7,204.2Z" style="fill:rgb(233,150,41);fill-rule:nonzero;"/>
            </g>
            <g>
                <path d="M274.5,207.8C271.9,207.8 270.3,209.2 270.3,212.9L270.3,222.2C270.3,225.9 271.9,227.2 274.5,227.2C277.1,227.2 278.7,225.9 278.7,222.2L278.7,212.9C278.7,209.2 277.1,207.8 274.5,207.8Z" style="fill:rgb(233,150,41);fill-rule:nonzero;"/>
                <path d="M303.7,189.2C301.1,189.2 299.5,190.6 299.5,194.3L299.5,222.3C299.5,226 301.1,227.4 303.7,227.4C306.3,227.4 307.9,226 307.9,222.3L307.9,194.3C307.9,190.6 306.3,189.2 303.7,189.2Z" style="fill:rgb(233,150,41);fill-rule:nonzero;"/>
                <path d="M343.2,167.1C337.8,162.5 329.6,162.6 323.6,166.1C312.1,153.1 295.3,144.9 276.6,144.9C242,144.9 213.9,173 213.9,207.6C213.9,242.2 242,270.3 276.6,270.3C311.2,270.3 339.3,242.2 339.3,207.6C339.3,203.7 338.9,199.9 338.2,196.2C350.1,192.1 353.9,175.3 343.2,167.1ZM257.2,196.1C257.2,201.7 255.4,205.1 251.5,206.7L251.5,206.8C255.6,208.6 257.2,212.4 257.2,217.6L257.2,221.7C257.2,230 253.1,234.7 245.1,234.7C237.1,234.7 233,230 233,221.7L233,217.4L240.7,217.4L240.7,222.2C240.7,225.9 242.3,227.3 244.9,227.3C247.5,227.3 249.1,226 249.1,221.5L249.1,217.4C249.1,212.6 247.5,210.8 243.8,210.8L241,210.8L241,203.4L244.2,203.4C247.2,203.4 249.1,202.1 249.1,197.9L249.1,195C249.1,190.3 247.5,189.1 244.9,189.1C242.3,189.1 240.7,190.5 240.7,194.2L240.7,197.5L233,197.5L233,194.7C233,186.4 237.1,181.7 245.1,181.7C253.1,181.7 257.2,186.4 257.2,194.7L257.2,196.1ZM286.9,221.7C286.9,230 282.5,234.7 274.5,234.7C266.5,234.7 262.1,230 262.1,221.7L262.1,195.2C262.1,186.5 266.1,181.7 274.5,181.7C282.5,181.7 286.6,186.4 286.6,194.7L286.6,196L279,196L279,194.1C279,190.4 277.4,189 274.8,189C271.9,189 270.3,190.4 270.3,195.4L270.3,204.8L270.4,204.8C271.8,201.8 274.2,200.3 277.8,200.3C283.8,200.3 286.8,204.5 286.8,212.1L286.8,221.7L286.9,221.7ZM316,221.7C316,230 311.6,234.7 303.6,234.7C295.6,234.7 291.2,230 291.2,221.7L291.2,194.7C291.2,186.4 295.6,181.7 303.6,181.7C311.6,181.7 316,186.4 316,194.7L316,221.7ZM337.6,196.2C337,196.4 336.5,196.6 335.9,196.7C318.6,199.4 314.3,175.1 331,171.4C347.1,168.7 352.5,191.1 337.6,196.2Z" style="fill:rgb(233,150,41);fill-rule:nonzero;"/>
            </g>
        </g>
    </g>
    <g transform="matrix(2.70262,0,0,1.87615,-310.64,-172.756)">
        <g transform="matrix(24,0,0,24,118.035,214.286)">
            <path d="M0.041,-0.7L0.203,-0.7C0.258,-0.7 0.299,-0.685 0.326,-0.656C0.353,-0.627 0.367,-0.584 0.367,-0.527L0.367,-0.458C0.367,-0.401 0.353,-0.358 0.326,-0.329C0.299,-0.3 0.258,-0.285 0.203,-0.285L0.151,-0.285L0.151,-0L0.041,-0L0.041,-0.7ZM0.203,-0.385C0.221,-0.385 0.235,-0.39 0.244,-0.4C0.253,-0.41 0.257,-0.427 0.257,-0.451L0.257,-0.534C0.257,-0.558 0.253,-0.575 0.244,-0.585C0.235,-0.595 0.221,-0.6 0.203,-0.6L0.151,-0.6L0.151,-0.385L0.203,-0.385Z" style="fill-rule:nonzero;"/>
        </g>
        <g transform="matrix(24,0,0,24,127.299,214.286)">
            <path d="M0.041,-0.7L0.204,-0.7C0.261,-0.7 0.302,-0.687 0.328,-0.661C0.354,-0.634 0.367,-0.594 0.367,-0.539L0.367,-0.496C0.367,-0.423 0.343,-0.377 0.295,-0.358L0.295,-0.356C0.322,-0.348 0.341,-0.332 0.352,-0.307C0.363,-0.282 0.368,-0.249 0.368,-0.208L0.368,-0.085C0.368,-0.065 0.369,-0.049 0.37,-0.037C0.371,-0.024 0.375,-0.012 0.38,-0L0.268,-0C0.264,-0.011 0.261,-0.022 0.26,-0.032C0.259,-0.042 0.258,-0.06 0.258,-0.086L0.258,-0.214C0.258,-0.246 0.253,-0.268 0.243,-0.281C0.232,-0.294 0.214,-0.3 0.189,-0.3L0.151,-0.3L0.151,-0L0.041,-0L0.041,-0.7ZM0.191,-0.4C0.213,-0.4 0.23,-0.406 0.241,-0.417C0.252,-0.428 0.257,-0.447 0.257,-0.474L0.257,-0.528C0.257,-0.553 0.253,-0.572 0.244,-0.583C0.235,-0.594 0.22,-0.6 0.201,-0.6L0.151,-0.6L0.151,-0.4L0.191,-0.4Z" style="fill-rule:nonzero;"/>
        </g>
        <g transform="matrix(24,0,0,24,136.971,214.286)">
            <path d="M0.2,0.01C0.146,0.01 0.105,-0.005 0.076,-0.036C0.047,-0.067 0.033,-0.11 0.033,-0.166L0.033,-0.534C0.033,-0.59 0.047,-0.633 0.076,-0.664C0.105,-0.695 0.146,-0.71 0.2,-0.71C0.254,-0.71 0.295,-0.695 0.324,-0.664C0.353,-0.633 0.367,-0.59 0.367,-0.534L0.367,-0.166C0.367,-0.11 0.353,-0.067 0.324,-0.036C0.295,-0.005 0.254,0.01 0.2,0.01ZM0.2,-0.09C0.238,-0.09 0.257,-0.113 0.257,-0.159L0.257,-0.541C0.257,-0.587 0.238,-0.61 0.2,-0.61C0.162,-0.61 0.143,-0.587 0.143,-0.541L0.143,-0.159C0.143,-0.113 0.162,-0.09 0.2,-0.09Z" style="fill-rule:nonzero;"/>
        </g>
        <g transform="matrix(24,0,0,24,146.571,214.286)">
            <path d="M0.041,-0.7L0.332,-0.7L0.332,-0.6L0.151,-0.6L0.151,-0.405L0.293,-0.405L0.293,-0.305L0.151,-0.305L0.151,-0L0.041,-0L0.041,-0.7Z" style="fill-rule:nonzero;"/>
        </g>
        <g transform="matrix(24,0,0,24,154.827,214.286)">
            <path d="M0.041,-0.7L0.341,-0.7L0.341,-0.6L0.151,-0.6L0.151,-0.415L0.302,-0.415L0.302,-0.315L0.151,-0.315L0.151,-0.1L0.341,-0.1L0.341,-0L0.041,-0L0.041,-0.7Z" style="fill-rule:nonzero;"/>
        </g>
        <g transform="matrix(24,0,0,24,163.587,214.286)">
            <path d="M0.184,0.01C0.131,0.01 0.09,-0.005 0.063,-0.036C0.036,-0.066 0.022,-0.109 0.022,-0.166L0.022,-0.206L0.126,-0.206L0.126,-0.158C0.126,-0.113 0.145,-0.09 0.183,-0.09C0.202,-0.09 0.216,-0.095 0.226,-0.107C0.235,-0.117 0.24,-0.135 0.24,-0.16C0.24,-0.189 0.233,-0.215 0.22,-0.238C0.207,-0.26 0.182,-0.287 0.146,-0.318C0.101,-0.358 0.069,-0.394 0.051,-0.427C0.033,-0.459 0.024,-0.495 0.024,-0.536C0.024,-0.591 0.038,-0.634 0.066,-0.665C0.094,-0.695 0.135,-0.71 0.188,-0.71C0.241,-0.71 0.281,-0.695 0.308,-0.665C0.335,-0.634 0.348,-0.591 0.348,-0.534L0.348,-0.505L0.244,-0.505L0.244,-0.541C0.244,-0.565 0.239,-0.583 0.23,-0.594C0.221,-0.604 0.207,-0.61 0.189,-0.61C0.152,-0.61 0.134,-0.588 0.134,-0.543C0.134,-0.518 0.141,-0.494 0.155,-0.472C0.168,-0.45 0.193,-0.423 0.229,-0.392C0.275,-0.352 0.307,-0.316 0.324,-0.283C0.341,-0.25 0.35,-0.212 0.35,-0.168C0.35,-0.111 0.336,-0.067 0.308,-0.036C0.279,-0.005 0.238,0.01 0.184,0.01Z" style="fill-rule:nonzero;"/>
        </g>
        <g transform="matrix(24,0,0,24,172.515,214.286)">
            <path d="M0.184,0.01C0.131,0.01 0.09,-0.005 0.063,-0.036C0.036,-0.066 0.022,-0.109 0.022,-0.166L0.022,-0.206L0.126,-0.206L0.126,-0.158C0.126,-0.113 0.145,-0.09 0.183,-0.09C0.202,-0.09 0.216,-0.095 0.226,-0.107C0.235,-0.117 0.24,-0.135 0.24,-0.16C0.24,-0.189 0.233,-0.215 0.22,-0.238C0.207,-0.26 0.182,-0.287 0.146,-0.318C0.101,-0.358 0.069,-0.394 0.051,-0.427C0.033,-0.459 0.024,-0.495 0.024,-0.536C0.024,-0.591 0.038,-0.634 0.066,-0.665C0.094,-0.695 0.135,-0.71 0.188,-0.71C0.241,-0.71 0.281,-0.695 0.308,-0.665C0.335,-0.634 0.348,-0.591 0.348,-0.534L0.348,-0.505L0.244,-0.505L0.244,-0.541C0.244,-0.565 0.239,-0.583 0.23,-0.594C0.221,-0.604 0.207,-0.61 0.189,-0.61C0.152,-0.61 0.134,-0.588 0.134,-0.543C0.134,-0.518 0.141,-0.494 0.155,-0.472C0.168,-0.45 0.193,-0.423 0.229,-0.392C0.275,-0.352 0.307,-0.316 0.324,-0.283C0.341,-0.25 0.35,-0.212 0.35,-0.168C0.35,-0.111 0.336,-0.067 0.308,-0.036C0.279,-0.005 0.238,0.01 0.184,0.01Z" style="fill-rule:nonzero;"/>
        </g>
        <g transform="matrix(24,0,0,24,181.443,214.286)">
            <rect x="0.041" y="-0.7" width="0.11" height="0.7" style="fill-rule:nonzero;"/>
        </g>
        <g transform="matrix(24,0,0,24,186.051,214.286)">
            <path d="M0.2,0.01C0.146,0.01 0.105,-0.005 0.076,-0.036C0.047,-0.067 0.033,-0.11 0.033,-0.166L0.033,-0.534C0.033,-0.59 0.047,-0.633 0.076,-0.664C0.105,-0.695 0.146,-0.71 0.2,-0.71C0.254,-0.71 0.295,-0.695 0.324,-0.664C0.353,-0.633 0.367,-0.59 0.367,-0.534L0.367,-0.166C0.367,-0.11 0.353,-0.067 0.324,-0.036C0.295,-0.005 0.254,0.01 0.2,0.01ZM0.2,-0.09C0.238,-0.09 0.257,-0.113 0.257,-0.159L0.257,-0.541C0.257,-0.587 0.238,-0.61 0.2,-0.61C0.162,-0.61 0.143,-0.587 0.143,-0.541L0.143,-0.159C0.143,-0.113 0.162,-0.09 0.2,-0.09Z" style="fill-rule:nonzero;"/>
        </g>
        <g transform="matrix(24,0,0,24,195.651,214.286)">
            <path d="M0.041,-0.7L0.179,-0.7L0.286,-0.281L0.288,-0.281L0.288,-0.7L0.386,-0.7L0.386,-0L0.273,-0L0.141,-0.511L0.139,-0.511L0.139,-0L0.041,-0L0.041,-0.7Z" style="fill-rule:nonzero;"/>
        </g>
        <g transform="matrix(24,0,0,24,205.899,214.286)">
            <path d="M0.126,-0.7L0.275,-0.7L0.389,-0L0.279,-0L0.259,-0.139L0.259,-0.137L0.134,-0.137L0.114,-0L0.012,-0L0.126,-0.7ZM0.246,-0.232L0.197,-0.578L0.195,-0.578L0.147,-0.232L0.246,-0.232Z" style="fill-rule:nonzero;"/>
        </g>
        <g transform="matrix(24,0,0,24,215.523,214.286)">
            <path d="M0.041,-0.7L0.151,-0.7L0.151,-0.1L0.332,-0.1L0.332,-0L0.041,-0L0.041,-0.7Z" style="fill-rule:nonzero;"/>
        </g>
    </g>
</svg>
